# xmcd
#
# Track frame offsets:
#	188
#	18045
#	30628
#	45658
#	64645
#	84250
#	121708
#	134030
#	144360
#	158000
#
# Disc length: 2292 seconds
#
# Revision: 21
# Processed by: cddbd v1.5.2PL0 Copyright (c) Steve Scherf et al.
# Submitted via: audiograbber 1.83.01
#
DISCID=7308f20a
DTITLE=Back To The Future - Music From The Motion Picture Soundtrack
DYEAR=1985
DGENRE=Soundtrack
TTITLE0=Huey Lewis And The News - The Power Of Love
TTITLE1=Lindsey Buckingham - Time Bomb Town
TTITLE2=The Outatime Orchestra - Back To The Future
TTITLE3=Eric Clapton - Heaven Is One Step Away
TTITLE4=Huey Lewis And The News - Back In Time
TTITLE5=The Outatime Orchestra - Back To The Future Overture
TTITLE6=Etta James - The Wallflower (Dance With Me Henry)
TTITLE7=Marvin Berry (Harry Waters Jr.) And The Starlighters - Night Train
TTITLE8=Marvin Berry (Harry Waters Jr.) And The Starlighters - Earth Angel (Wil
TTITLE8=l You Be Mine)
TTITLE9=Marty McFly (Mark Campbell) With The Starlighters - Johnny B. Goode
EXTD=Music From Motion Picture Soundtrack
EXTT0=Other Artists: Huey Lewis and the News\n\n\n\n\n\n
EXTT1=Other Artists: Lindsey Buckingham\n\n\n\n
EXTT2=Written and composed by: Alan Silvestri\n\n\n\nOther Artists: The Outatim
EXTT2=e Orchestra\n\nConducted by Alan Silvestri\n\n\n\n
EXTT3=Other Artists: Eric Clapton\n\nProduced by Phil Collins\n\n\n\n\n\n
EXTT4=Other Artists: Huey Lewis and the News\n\n\n\n
EXTT5=Written and composed by: Alan Silvestri\n\n\n\nOther Artists: The Outatim
EXTT5=e Orchestra\n\nConducted by Alan Silvestri\n\n\n\n
EXTT6=Other Artists: Etta James\n\n\n\n
EXTT7=Other Artists: "Marvin Berry and the Starlighters"\n\n\n\n\n\n
EXTT8=Other Artists: "Marvin Berry and the Starlighters"\n\n"Marvin Berry": Har
EXTT8=ry Waters, Jr.\n\n\n\n
EXTT9=Other Artists: "Marty McFly with the Starlighters"\n\n"Marty McFly": Mark
EXTT9=Campbell\n\nGuitar Solo: Tim May\n\n\n\n
PLAYORDER=
